<?xml version="1.0" encoding="utf-8"?>
<!-- Generator: Adobe Illustrator 27.6.1, SVG Export Plug-In . SVG Version: 6.00 Build 0)  -->
<svg version="1.1" id="Laag_1" xmlns="http://www.w3.org/2000/svg" xmlns:xlink="http://www.w3.org/1999/xlink" x="0px" y="0px"
	 viewBox="0 0 510.24 510.24" style="enable-background:new 0 0 510.24 510.24;" xml:space="preserve">
<style type="text/css">
	.st0{fill:#00374E;}
	.st1{fill:#F1C631;}
</style>
<g>
	<rect x="84.2" y="19.5" class="st0" width="353.9" height="353.9"/>
	<polygon class="st1" points="388.9,190.99 388.9,297.93 357.1,312.1 357.1,312.12 257.84,356.4 256.35,356.4 226.05,343.28 
		159.72,314.54 127.93,300.77 127.93,36.72 159.72,52.25 159.72,287.15 176.98,294.14 176.98,60.69 208.79,76.23 208.79,309.49 
		226.05,317.82 226.05,84.66 257.84,100.2 257.84,329.03 357.1,284.15 357.1,203.38 284.21,172.15 284.21,145.38 357.1,177.15 	"/>
	<g>
		<path class="st0" d="M437.67,383.74h-46.85v10.49h16.52v45.88h13.51v-45.88h16.82V383.74z M370.66,429.21
			c-1.3,0.97-3.06,1.45-5.29,1.45c-3.49,0-6.01-0.72-7.56-2.15c-1.55-1.43-2.33-3.66-2.33-6.68h-13.55c0,3.72,0.93,7,2.79,9.85
			c1.86,2.85,4.63,5.1,8.32,6.74c3.68,1.64,7.8,2.46,12.34,2.46c6.44,0,11.51-1.41,15.21-4.22c3.7-2.81,5.54-6.68,5.54-11.62
			c0-6.17-3.03-11.01-9.09-14.52c-2.49-1.44-5.67-2.79-9.55-4.05c-3.88-1.25-6.58-2.46-8.12-3.64c-1.54-1.17-2.31-2.48-2.31-3.93
			c0-1.65,0.7-3.01,2.1-4.08c1.4-1.07,3.3-1.61,5.72-1.61c2.39,0,4.28,0.63,5.68,1.9c1.4,1.26,2.1,3.05,2.1,5.34h13.47
			c0-3.43-0.89-6.49-2.66-9.16c-1.77-2.67-4.25-4.73-7.45-6.18c-3.19-1.45-6.81-2.17-10.84-2.17c-4.13,0-7.85,0.66-11.16,1.99
			c-3.31,1.33-5.87,3.19-7.68,5.58c-1.81,2.39-2.71,5.14-2.71,8.27c0,6.27,3.63,11.2,10.9,14.79c2.23,1.11,5.11,2.26,8.62,3.45
			c3.52,1.19,5.97,2.34,7.37,3.45c1.4,1.11,2.1,2.66,2.1,4.65C372.6,426.88,371.96,428.24,370.66,429.21 M333.72,406.11h-21.25
			v-11.89h25.18v-10.49h-38.69v56.37h38.61v-10.45h-25.1v-13.47h21.25V406.11z M256.88,383.74h-14.98l18.71,56.37h14.78l18.86-56.37
			h-15.09l-11.16,41.04L256.88,383.74z M237.09,383.74h-13.47v35.08l-19.83-35.08h-13.51v56.37h13.51v-35.08l19.86,35.08h13.44
			V383.74z M180.27,383.74H166.8v56.37h13.47V383.74z M137.04,412.19c0.05,2.68,0.97,4.86,2.75,6.52c1.78,1.66,4.12,2.5,7.03,2.5
			c2.95,0,5.31-0.85,7.08-2.54c1.77-1.69,2.66-3.92,2.66-6.68v-1.63c-0.05-2.74-0.96-4.94-2.73-6.62c-1.77-1.68-4.13-2.52-7.08-2.52
			c-2.87,0-5.21,0.86-7.01,2.59c-1.8,1.73-2.69,3.98-2.69,6.74V412.19z M98.16,394.19h6.62c3.03,0,5.22,0.53,6.58,1.57
			c1.36,1.05,2.04,2.76,2.04,5.14c0,2.07-0.63,3.64-1.89,4.7c-1.26,1.06-3.36,1.61-6.31,1.63h-7.04V394.19z M107.63,416.14
			c4.64,0.03,6.97,2.39,6.97,7.09c0,2.04-0.65,3.62-1.96,4.74c-1.31,1.12-3.18,1.68-5.62,1.68h-8.85v-13.51H107.63z M107.4,440.11
			c6.83-0.05,11.98-1.46,15.46-4.24c3.48-2.77,5.22-6.92,5.22-12.45c0-3.04-0.78-5.63-2.35-7.74c-1.57-2.12-3.81-3.56-6.74-4.34
			c2.59-0.98,4.56-2.5,5.89-4.57c1.33-2.06,2-4.56,2-7.47c0-5.06-1.88-8.92-5.64-11.58c-3.76-2.66-9.25-3.99-16.46-3.99H84.65v56.37
			H107.4z"/>
		<path class="st0" d="M409.97,455.95h11.94c3.2,0.04,5.71,0.64,7.54,1.79c1.83,1.15,2.75,2.68,2.75,4.59
			c0,2.01-0.92,3.56-2.75,4.62c-1.83,1.07-4.47,1.6-7.91,1.6h-11.57V455.95z M421.47,472.01c5.52,0,9.76-0.84,12.72-2.52
			c2.96-1.68,4.44-4.08,4.44-7.19c0-2.95-1.51-5.32-4.54-7.11c-3.03-1.79-7.21-2.69-12.56-2.69h-18v32.07h6.44v-12.55H421.47z
			 M352.59,452.49v21.74c0,2.32-0.97,4.12-2.9,5.4c-1.93,1.28-4.72,1.92-8.36,1.92c-3.6,0-6.37-0.64-8.31-1.93
			c-1.94-1.28-2.92-3.09-2.92-5.41v-21.72h-6.37v21.85c0.04,3.32,1.65,5.92,4.83,7.82c3.17,1.89,7.43,2.84,12.77,2.84l1.71-0.04
			c4.92-0.23,8.81-1.31,11.68-3.24c2.87-1.92,4.32-4.4,4.34-7.42v-21.8H352.59z M274.33,469.87c-0.07,3.71-1.24,6.57-3.52,8.56
			c-2.28,1.99-5.5,2.98-9.66,2.98c-4.13,0-7.38-1.05-9.74-3.16c-2.36-2.11-3.54-5-3.54-8.69v-2.36c0.07-3.61,1.27-6.43,3.6-8.47
			c2.34-2.03,5.54-3.05,9.61-3.05c4.18,0,7.43,1.02,9.76,3.05c2.32,2.03,3.49,4.95,3.49,8.76V469.87z M280.73,467.53
			c0-3.13-0.8-5.87-2.41-8.23c-1.61-2.36-3.91-4.16-6.89-5.4c-2.98-1.24-6.43-1.86-10.34-1.86c-3.84,0-7.26,0.63-10.24,1.88
			c-2.98,1.26-5.29,3.07-6.92,5.43c-1.63,2.36-2.45,5.09-2.45,8.17v2.31c0.04,3.03,0.89,5.69,2.53,7.98s3.95,4.07,6.92,5.31
			c2.97,1.24,6.38,1.86,10.23,1.86c3.93,0,7.38-0.62,10.33-1.85c2.95-1.23,5.23-3.02,6.84-5.36c1.61-2.34,2.41-5.08,2.41-8.23
			V467.53z M173.03,455.95h9.86c3.4,0.01,6,0.55,7.79,1.61c1.8,1.06,2.7,2.58,2.7,4.57c0,1.82-0.94,3.28-2.83,4.37
			c-1.89,1.09-4.43,1.63-7.63,1.63h-9.89V455.95z M195.09,484.56H202v-0.26l-11.46-13.61c2.93-0.73,5.21-1.84,6.86-3.32
			c1.64-1.48,2.46-3.22,2.46-5.22c0-3.14-1.48-5.54-4.44-7.18c-2.96-1.64-7.19-2.47-12.69-2.47h-16.16v32.07h6.47v-12.97h11.46
			L195.09,484.56z M121.56,468.59h-17.7v3.46h11.3v7.19c-1.18,0.84-2.68,1.43-4.49,1.78c-1.81,0.35-3.92,0.53-6.34,0.53
			c-4.27,0-7.65-1.06-10.16-3.19c-2.5-2.12-3.75-4.98-3.75-8.59v-2.62c0.02-3.78,1.15-6.66,3.37-8.65c2.22-1.99,5.49-2.99,9.81-2.99
			c6.48,0,10.33,2.13,11.53,6.39h6.44c-0.69-3.14-2.59-5.57-5.7-7.28c-3.11-1.71-7.21-2.57-12.3-2.57c-6.21,0-11.04,1.33-14.47,3.99
			c-3.43,2.66-5.15,6.4-5.15,11.23v2.8c0.04,2.98,0.91,5.6,2.6,7.86c1.69,2.26,4.07,4.01,7.16,5.23c3.08,1.23,6.62,1.84,10.59,1.84
			c3.93,0,7.38-0.39,10.34-1.16c2.96-0.77,5.27-1.93,6.92-3.49V468.59z"/>
	</g>
</g>
</svg>
