<?xml version="1.0" encoding="utf-8"?>
<!-- Generator: Adobe Illustrator 27.6.1, SVG Export Plug-In . SVG Version: 6.00 Build 0)  -->
<svg version="1.1" id="Laag_1" xmlns="http://www.w3.org/2000/svg" xmlns:xlink="http://www.w3.org/1999/xlink" x="0px" y="0px"
	 viewBox="0 0 106 106" style="enable-background:new 0 0 106 106;" xml:space="preserve">
<style type="text/css">
	.st0{fill:#21384D;}
	.st1{clip-path:url(#SVGID_00000078740938772928023290000017602730221559919244_);fill:#F0C81F;}
</style>
<rect x="-0.46" y="0.05" class="st0" width="107.46" height="106.16"/>
<g>
	<defs>
		<rect id="SVGID_1_" x="-0.46" y="0.05" width="107.46" height="106.16"/>
	</defs>
	<clipPath id="SVGID_00000154389729180488872740000006475151247934965634_">
		<use xlink:href="#SVGID_1_"  style="overflow:visible;"/>
	</clipPath>
	<path style="clip-path:url(#SVGID_00000154389729180488872740000006475151247934965634_);fill:#F0C81F;" d="M97.49,68.59
		L75.21,33.98c-0.16-0.24-0.43-0.39-0.72-0.39c-0.1,0-0.2,0.02-0.3,0.05v-0.05h-9.87H54.16H43.99H33.83h0c-0.04,0-0.07,0-0.11,0.01
		c0,0-0.01,0-0.01,0c-0.21,0.03-0.4,0.13-0.54,0.29c-0.01,0.01-0.02,0.03-0.03,0.05c-0.01,0.01-0.02,0.03-0.03,0.04v0l-0.01,0.01
		L9.05,71.29c-0.18,0.27-0.19,0.62-0.03,0.91c0.16,0.29,0.46,0.46,0.79,0.46h5.92c0.31,0,0.6-0.16,0.76-0.41l1.52-2.37h31.7
		l1.55,2.4c0.16,0.24,0.43,0.39,0.72,0.39h5.91c0.31,0,0.6-0.17,0.75-0.44c0.15-0.27,0.14-0.6-0.03-0.85l-0.96-1.5h39.12
		c0.31,0,0.6-0.17,0.75-0.44C97.67,69.17,97.66,68.85,97.49,68.59 M72.94,35.27l-3.53,5.49l-3.53-5.49H72.94z M52.45,70.98
		l-0.71-1.1l-1.09-1.68l-3.53-5.47l-1.01-1.56l-4.08-6.32l-1.01-1.56l-4.08-6.32l-1.01-1.56l-1.38-2.13
		c-0.16-0.24-0.43-0.39-0.72-0.39h0c-0.29,0-0.56,0.15-0.72,0.39L17.09,68.2L16,69.88l-0.71,1.1h-4.02l0.71-1.1L33.82,36v0
		l4.07,6.33l1.01,1.57l4.07,6.33l1.01,1.57l4.07,6.33l1.01,1.57l4.07,6.33l1.01,1.57l0.39,0.61l1.08,1.68l0.71,1.1H52.45z
		 M53.15,50.22l-4.07,6.33L45,50.22l4.07-6.33L53.15,50.22z M50.08,42.33L54.16,36l4.07,6.33l-4.07,6.33L50.08,42.33z M43.99,48.66
		l-4.07-6.33L43.99,36l4.08,6.33L43.99,48.66z M50.08,58.12l4.07-6.33l4.07,6.33l-4.07,6.33L50.08,58.12z M55.17,50.22l4.08-6.33
		l4.07,6.33l-4.07,6.33L55.17,50.22z M60.25,42.33L64.33,36l4.07,6.33l-4.07,6.33L60.25,42.33z M62.78,35.27l-3.53,5.49l-3.53-5.49
		H62.78z M52.61,35.27l-3.53,5.49l-3.53-5.49H52.61z M42.44,35.27l-3.53,5.49l-3.53-5.49H42.44z M33.83,45.29l1.08,1.68L21.24,68.2
		H19.1L33.83,45.29z M35.92,48.53L40,54.85L31.41,68.2h-8.15L35.92,48.53z M41.01,56.41l4.08,6.32l-3.52,5.47h-8.15L41.01,56.41z
		 M43.6,68.2l2.51-3.9l2.52,3.9H43.6z M56.57,68.2l-1.41-2.18l4.08-6.33l5.48,8.51H56.57z M66.74,68.2l-6.49-10.08l4.07-6.33
		L74.89,68.2H66.74z M76.91,68.2L65.33,50.22l4.07-6.33l15.65,24.3H76.91z M87.07,68.2L70.42,42.33L74.49,36l20.73,32.2H87.07z"/>
</g>
</svg>
