<?xml version="1.0" encoding="utf-8"?>
<!-- Generator: Adobe Illustrator 27.6.1, SVG Export Plug-In . SVG Version: 6.00 Build 0)  -->
<svg version="1.1" id="Laag_1" xmlns="http://www.w3.org/2000/svg" xmlns:xlink="http://www.w3.org/1999/xlink" x="0px" y="0px"
	 viewBox="0 0 25.5 25.5" style="enable-background:new 0 0 25.5 25.5;" xml:space="preserve">
<style type="text/css">
	.st0{fill:#EFC431;}
	.st1{clip-path:url(#SVGID_00000023998033360882914270000000400438196166962831_);fill:#22384E;}
</style>
<rect x="0.25" y="0.25" class="st0" width="25" height="25"/>
<g>
	<defs>
		<rect id="SVGID_1_" x="0.25" y="0.25" width="25" height="25"/>
	</defs>
	<clipPath id="SVGID_00000057826319281349350820000014490821970249722516_">
		<use xlink:href="#SVGID_1_"  style="overflow:visible;"/>
	</clipPath>
</g>
<g>
	<defs>
		<rect id="SVGID_00000057832581246333670230000012960327204226581122_" x="3.67" y="3.62" width="18.74" height="19.09"/>
	</defs>
	<clipPath id="SVGID_00000156564173303117312780000010108659215294951604_">
		<use xlink:href="#SVGID_00000057832581246333670230000012960327204226581122_"  style="overflow:visible;"/>
	</clipPath>
	<path style="clip-path:url(#SVGID_00000156564173303117312780000010108659215294951604_);fill:#22384E;" d="M13.1,22.71
		c-1.2,0-2.37-0.2-3.43-0.59c-3.6-1.33-6.86-5.36-5.79-10.19c0.47-2.13,1.64-4.1,3.29-5.56c2.15-1.9,4.89-2.9,7.53-2.73
		c2.85,0.18,5.54,1.81,6.84,4.16c1.4,2.52,1.1,5.86-0.7,7.93c-0.89,1.03-2.52,2.02-4.16,1.43c-0.59-0.21-1.06-0.68-1.35-1.35
		c-0.04-0.09-0.08-0.19-0.11-0.29c-0.26,0.38-0.58,0.76-1.02,1.14c-1.59,1.38-4.19,1.9-5.63,0.31c-0.85-0.93-1.03-2.4-0.49-4.02
		c0.69-2.09,2.23-3.79,4.09-4.53c0.75-0.3,1.87-0.56,2.94-0.12c0.99,0.41,1.82,1.56,1.5,2.75c-0.09,0.32-0.42,0.52-0.74,0.43
		c-0.32-0.09-0.52-0.42-0.43-0.74c0.14-0.52-0.31-1.11-0.8-1.32c-0.73-0.3-1.58-0.05-2.02,0.12c-1.54,0.62-2.81,2.03-3.39,3.79
		c-0.15,0.44-0.56,1.94,0.24,2.82c0.9,0.99,2.8,0.58,3.94-0.41c0.91-0.79,1.2-1.53,1.5-2.32c0.15-0.38,0.3-0.77,0.52-1.15
		c0.16-0.28,0.51-0.38,0.8-0.23c0.29,0.15,0.41,0.49,0.28,0.78c-0.34,0.78-0.37,1.78-0.06,2.49c0.11,0.25,0.31,0.57,0.64,0.69
		c1,0.35,2.15-0.29,2.84-1.09c1.48-1.7,1.71-4.46,0.55-6.55c-1.1-1.99-3.4-3.38-5.85-3.53C12.3,4.71,9.88,5.59,7.97,7.28
		c-1.46,1.29-2.49,3.03-2.91,4.91c-0.92,4.16,1.91,7.63,5.03,8.79c2.98,1.11,8.32,0.63,10.84-3.88c0.16-0.29,0.53-0.4,0.83-0.23
		c0.29,0.16,0.4,0.53,0.23,0.83C20.07,21.13,16.47,22.71,13.1,22.71"/>
</g>
</svg>
