<?xml version="1.0" encoding="utf-8"?>
<!-- Generator: Adobe Illustrator 27.6.1, SVG Export Plug-In . SVG Version: 6.00 Build 0)  -->
<svg version="1.1" id="Laag_1" xmlns="http://www.w3.org/2000/svg" xmlns:xlink="http://www.w3.org/1999/xlink" x="0px" y="0px"
	 viewBox="0 0 25.5 25.5" style="enable-background:new 0 0 25.5 25.5;" xml:space="preserve">
<style type="text/css">
	.st0{fill:#EFC431;}
	.st1{clip-path:url(#SVGID_00000155146395087670545140000014295328396319941293_);fill:#22384E;}
</style>
<rect x="0.25" y="0.25" class="st0" width="25" height="25"/>
<g>
	<defs>
		<rect id="SVGID_1_" x="0.25" y="0.25" width="25" height="25"/>
	</defs>
	<clipPath id="SVGID_00000156552801913635266360000014967235532225139879_">
		<use xlink:href="#SVGID_1_"  style="overflow:visible;"/>
	</clipPath>
	<path style="clip-path:url(#SVGID_00000156552801913635266360000014967235532225139879_);fill:#22384E;" d="M10.99,15.05
		c0.94,1.68,1.76,2.99,1.76,2.99s0.82-1.31,1.76-2.99h1.98l2.15,5.41H6.87l2.15-5.41H10.99z M12.75,6.18c1.28,0,2.33,1.04,2.33,2.33
		c0,1.28-1.04,2.32-2.33,2.32c-1.28,0-2.33-1.04-2.33-2.32C10.42,7.22,11.47,6.18,12.75,6.18 M5.47,21.41h14.56l-2.9-7.31h-2.11
		c1.09-2.05,2.17-4.37,2.17-5.57c0-2.45-1.99-4.44-4.44-4.44c-2.45,0-4.44,1.99-4.44,4.44c0,1.21,1.07,3.53,2.17,5.57H8.37
		L5.47,21.41z"/>
</g>
</svg>
