<?xml version="1.0" encoding="utf-8"?>
<!-- Generator: Adobe Illustrator 27.6.1, SVG Export Plug-In . SVG Version: 6.00 Build 0)  -->
<svg version="1.1" id="Laag_1" xmlns="http://www.w3.org/2000/svg" xmlns:xlink="http://www.w3.org/1999/xlink" x="0px" y="0px"
	 viewBox="0 0 25.5 25.5" style="enable-background:new 0 0 25.5 25.5;" xml:space="preserve">
<style type="text/css">
	.st0{fill:#EFC431;}
	.st1{clip-path:url(#SVGID_00000008124266122032219600000010026851398441864381_);fill:#22384E;}
</style>
<rect x="0.25" y="0.25" class="st0" width="25" height="25"/>
<g>
	<defs>
		<rect id="SVGID_1_" x="0.25" y="0.25" width="25" height="25"/>
	</defs>
	<clipPath id="SVGID_00000179624476185195272610000004888167563879867533_">
		<use xlink:href="#SVGID_1_"  style="overflow:visible;"/>
	</clipPath>
</g>
<g>
	<defs>
		<rect id="SVGID_00000089537365397592944770000016469880612535062418_" x="4.06" y="4.28" width="17.62" height="17.62"/>
	</defs>
	<clipPath id="SVGID_00000067925280512443431550000006969118846039828394_">
		<use xlink:href="#SVGID_00000089537365397592944770000016469880612535062418_"  style="overflow:visible;"/>
	</clipPath>
	<path style="clip-path:url(#SVGID_00000067925280512443431550000006969118846039828394_);fill:#22384E;" d="M20.64,12.74h-2.64
		c-0.03-1.31-0.25-2.55-0.62-3.64c0.61-0.24,1.14-0.53,1.58-0.85C19.95,9.5,20.56,11.05,20.64,12.74 M18.5,7.73
		C18.12,8,17.66,8.24,17.13,8.45C16.66,7.29,16,6.34,15.24,5.68C16.49,6.09,17.61,6.8,18.5,7.73 M16.49,8.67
		c-0.96,0.3-2.08,0.48-3.27,0.51V5.46C14.57,5.64,15.75,6.87,16.49,8.67 M13.22,9.88c1.29-0.03,2.49-0.22,3.52-0.54
		c0.33,1.02,0.53,2.17,0.57,3.41h-4.08V9.88z M13.22,13.44h4.08c-0.03,1.23-0.24,2.39-0.57,3.41c-1.03-0.32-2.22-0.51-3.52-0.54
		V13.44z M13.22,17c1.19,0.03,2.31,0.22,3.27,0.51c-0.74,1.81-1.92,3.04-3.27,3.22V17z M15.24,20.5c0.76-0.65,1.42-1.6,1.89-2.77
		c0.53,0.21,0.99,0.45,1.36,0.72C17.61,19.38,16.49,20.1,15.24,20.5 M18.96,17.93c-0.44-0.33-0.97-0.61-1.58-0.85
		c0.36-1.09,0.58-2.32,0.62-3.63h2.64C20.56,15.13,19.95,16.68,18.96,17.93 M12.53,20.72c-1.35-0.18-2.53-1.41-3.27-3.22
		c0.96-0.3,2.08-0.48,3.27-0.51V20.72z M12.53,16.3c-1.29,0.03-2.49,0.22-3.52,0.54c-0.33-1.02-0.53-2.17-0.57-3.41h4.08V16.3z
		 M12.53,12.74H8.44c0.03-1.24,0.24-2.39,0.57-3.41c1.03,0.32,2.22,0.52,3.52,0.54V12.74z M12.53,9.19
		c-1.19-0.03-2.31-0.22-3.27-0.51c0.74-1.81,1.92-3.04,3.27-3.22V9.19z M10.5,5.68C9.74,6.34,9.09,7.29,8.61,8.45
		C8.08,8.24,7.62,8,7.25,7.73C8.13,6.8,9.25,6.09,10.5,5.68 M6.79,8.26c0.44,0.33,0.97,0.61,1.58,0.85C8,10.2,7.78,11.43,7.75,12.74
		H5.11C5.18,11.05,5.8,9.5,6.79,8.26 M5.11,13.44h2.64c0.03,1.31,0.25,2.55,0.62,3.63c-0.61,0.24-1.14,0.53-1.58,0.85
		C5.8,16.68,5.18,15.13,5.11,13.44 M7.25,18.45c0.38-0.27,0.84-0.52,1.36-0.72c0.48,1.16,1.13,2.11,1.89,2.77
		C9.25,20.1,8.13,19.38,7.25,18.45 M21.68,13.09c0-4.86-3.94-8.81-8.81-8.81c-4.86,0-8.81,3.94-8.81,8.81
		c0,4.86,3.94,8.81,8.81,8.81C17.74,21.9,21.68,17.96,21.68,13.09"/>
</g>
</svg>
