<?xml version="1.0" encoding="utf-8"?>
<!-- Generator: Adobe Illustrator 27.6.1, SVG Export Plug-In . SVG Version: 6.00 Build 0)  -->
<svg version="1.1" id="Laag_1" xmlns="http://www.w3.org/2000/svg" xmlns:xlink="http://www.w3.org/1999/xlink" x="0px" y="0px"
	 viewBox="0 0 25.5 25.5" style="enable-background:new 0 0 25.5 25.5;" xml:space="preserve">
<style type="text/css">
	.st0{fill:#EFC431;}
	.st1{clip-path:url(#SVGID_00000099653679945986011600000008611191065815827612_);fill:#22384E;}
</style>
<rect x="0.25" y="0.25" class="st0" width="25" height="25"/>
<g>
	<defs>
		<rect id="SVGID_1_" x="0.25" y="0.25" width="25" height="25"/>
	</defs>
	<clipPath id="SVGID_00000023275205185737414790000009253812414651874230_">
		<use xlink:href="#SVGID_1_"  style="overflow:visible;"/>
	</clipPath>
</g>
<g>
	<defs>
		<rect id="SVGID_00000039830031254002363370000002200765925146696095_" x="4.09" y="4.2" width="17.11" height="18.01"/>
	</defs>
	<clipPath id="SVGID_00000117667138990032044690000001889957723463433634_">
		<use xlink:href="#SVGID_00000039830031254002363370000002200765925146696095_"  style="overflow:visible;"/>
	</clipPath>
	<path style="clip-path:url(#SVGID_00000117667138990032044690000001889957723463433634_);fill:#22384E;" d="M4.09,7.94
		c0.1,2.47,1.76,4.85,3.16,6.78c1.28,1.75,2.78,3.35,4.47,4.72c1.07,0.87,2.22,1.65,3.44,2.29c0.74,0.39,1.24,0.63,2.1,0.38
		c1.32-0.38,4.37-1.94,3.86-3.65c-0.26-0.87-1.32-1.72-1.99-2.27c-0.81-0.66-2.23-1.83-3.17-0.74c-0.57,0.55-1.15,1.8-2.04,1.88
		c-0.95,0.09-1.8-1.01-2.39-1.61c-0.97-0.99-1.85-2.07-2.63-3.21c-0.73-1.2,0.18-1.69,1.07-2.34c0.41-0.3,0.92-0.58,1.12-1.07
		c0.37-0.91-0.5-2.04-1-2.74C9.64,5.69,9.09,5.08,8.49,4.54C7.7,3.83,6.83,4.39,6.17,4.96C5.26,5.74,4.49,6.8,4.09,7.94"/>
</g>
</svg>
