<?xml version="1.0" encoding="utf-8"?>
<!-- Generator: Adobe Illustrator 27.6.1, SVG Export Plug-In . SVG Version: 6.00 Build 0)  -->
<svg version="1.1" id="Laag_1" xmlns="http://www.w3.org/2000/svg" xmlns:xlink="http://www.w3.org/1999/xlink" x="0px" y="0px"
	 viewBox="0 0 106 106" style="enable-background:new 0 0 106 106;" xml:space="preserve">
<style type="text/css">
	.st0{fill:#21384D;}
	
		.st1{clip-path:url(#SVGID_00000121258792987891524020000006668269729841799337_);fill:none;stroke:#F0C81F;stroke-width:1.748;stroke-miterlimit:10;}
	.st2{fill:none;stroke:#F0C81F;stroke-width:1.748;stroke-miterlimit:10;}
	
		.st3{clip-path:url(#SVGID_00000166660873648108119320000001915064001618664862_);fill:none;stroke:#F0C81F;stroke-width:1.748;stroke-miterlimit:10;}
</style>
<rect x="-0.46" y="0.05" class="st0" width="106.46" height="106.16"/>
<g>
	<defs>
		<rect id="SVGID_1_" x="-0.46" y="0.05" width="106.46" height="106.16"/>
	</defs>
	<clipPath id="SVGID_00000073685385842165598500000002159880687570834361_">
		<use xlink:href="#SVGID_1_"  style="overflow:visible;"/>
	</clipPath>
	
		<path style="clip-path:url(#SVGID_00000073685385842165598500000002159880687570834361_);fill:none;stroke:#F0C81F;stroke-width:1.748;stroke-miterlimit:10;" d="
		M29.22,68.79c0,0,41.22-7.84,46.12-7.84c7.85,0.98,7.85,13.7,7.85,13.7l-43.18,8.81c0-10.76-7.85-14.68-10.44-14.68
		c-3.97,0-7.22,3-7.22,7.83c0,3.87,2.58,6.85,5.76,6.85c2.54,0,5.03-1.65,5.03-4.74c0-2.47-2.17-4.38-4.21-4.38l7.34-1.71"/>
	
		<path style="clip-path:url(#SVGID_00000073685385842165598500000002159880687570834361_);fill:none;stroke:#F0C81F;stroke-width:1.748;stroke-miterlimit:10;" d="
		M43.94,70.74c1.96,0.98,2.71,3.95,2.94,4.89l30.42-5.87c0,0,0-1.96-1.96-3.92"/>
</g>
<line class="st2" x1="28.83" y1="83.42" x2="39.81" y2="80.6"/>
<g>
	<defs>
		<rect id="SVGID_00000066483988950000596630000015221255618219178653_" x="-0.46" y="0.05" width="106.46" height="106.16"/>
	</defs>
	<clipPath id="SVGID_00000174600012946874805230000002607296647158246542_">
		<use xlink:href="#SVGID_00000066483988950000596630000015221255618219178653_"  style="overflow:visible;"/>
	</clipPath>
	
		<path style="clip-path:url(#SVGID_00000174600012946874805230000002607296647158246542_);fill:none;stroke:#F0C81F;stroke-width:1.748;stroke-miterlimit:10;" d="
		M23.33,64.87c0,0-0.98-1.35-0.98-3.91l9.81-9.78"/>
	
		<path style="clip-path:url(#SVGID_00000174600012946874805230000002607296647158246542_);fill:none;stroke:#F0C81F;stroke-width:1.748;stroke-miterlimit:10;" d="
		M57.67,22.79c24.53,0,24.53,27.4,24.53,27.4h-5.89l-10.8,2.94l-3.93,3.91C50.8,59,38.05,59,32.16,54.11v-5.87
		c0,0,0.08-11.77,7.93-16.67"/>
	
		<path style="clip-path:url(#SVGID_00000174600012946874805230000002607296647158246542_);fill:none;stroke:#F0C81F;stroke-width:1.748;stroke-miterlimit:10;" d="
		M75.47,30.52c-4.18-2.34-9.65-2.67-14.5-2.36c-7.56,0.48-13.9,5.88-15.61,13.25c-0.25,1.07-1.32,1.72-2.39,1.46l-4.07-1.01
		c-1.03-0.26-1.66-1.28-1.44-2.31l0.58-2.7c1.56-7.27,7.52-12.89,14.93-13.77c1.45-0.17,3.01-0.27,4.7-0.27"/>
	
		<path style="clip-path:url(#SVGID_00000174600012946874805230000002607296647158246542_);fill:none;stroke:#F0C81F;stroke-width:1.748;stroke-miterlimit:10;" d="
		M71.41,34.54c0,0-19.63-0.98-21.59,17.61"/>
	
		<path style="clip-path:url(#SVGID_00000174600012946874805230000002607296647158246542_);fill:none;stroke:#F0C81F;stroke-width:1.748;stroke-miterlimit:10;" d="
		M79.26,50.19c0,0,0.98,3.3,0,5.87"/>
</g>
</svg>
