<?xml version="1.0" encoding="utf-8"?>
<!-- Generator: Adobe Illustrator 27.6.1, SVG Export Plug-In . SVG Version: 6.00 Build 0)  -->
<svg version="1.1" id="Laag_1" xmlns="http://www.w3.org/2000/svg" xmlns:xlink="http://www.w3.org/1999/xlink" x="0px" y="0px"
	 viewBox="0 0 106 106" style="enable-background:new 0 0 106 106;" xml:space="preserve">
<style type="text/css">
	.st0{fill:#21384D;}
	
		.st1{clip-path:url(#SVGID_00000124123546964453733810000009791959706010751919_);fill:none;stroke:#F0C81F;stroke-width:1.085;stroke-linecap:round;stroke-linejoin:round;}
	.st2{fill:none;stroke:#F0C81F;stroke-width:1.085;stroke-linecap:round;stroke-linejoin:round;}
	
		.st3{clip-path:url(#SVGID_00000145759483115284785890000005782006225343646872_);fill:none;stroke:#F0C81F;stroke-width:1.085;stroke-linecap:round;stroke-linejoin:round;}
	.st4{clip-path:url(#SVGID_00000183953853588259670010000011656564923636626586_);fill:#F0C81F;}
	
		.st5{clip-path:url(#SVGID_00000183953853588259670010000011656564923636626586_);fill:none;stroke:#21384D;stroke-width:0.499;stroke-miterlimit:10;}
</style>
<rect x="-0.46" y="0.05" class="st0" width="106.46" height="106.16"/>
<g>
	<defs>
		<rect id="SVGID_1_" x="-0.46" y="0.05" width="106.46" height="106.16"/>
	</defs>
	<clipPath id="SVGID_00000026142783540113991470000000654981343590941085_">
		<use xlink:href="#SVGID_1_"  style="overflow:visible;"/>
	</clipPath>
	
		<path style="clip-path:url(#SVGID_00000026142783540113991470000000654981343590941085_);fill:none;stroke:#F0C81F;stroke-width:1.085;stroke-linecap:round;stroke-linejoin:round;" d="
		M40.56,30.77c0,3.59-2.92,6.5-6.52,6.5c-3.6,0-6.51-2.91-6.51-6.5s2.92-6.5,6.51-6.5C37.64,24.27,40.56,27.18,40.56,30.77z"/>
	
		<path style="clip-path:url(#SVGID_00000026142783540113991470000000654981343590941085_);fill:none;stroke:#F0C81F;stroke-width:1.085;stroke-linecap:round;stroke-linejoin:round;" d="
		M82.92,30.77c0,3.59-2.92,6.5-6.52,6.5c-3.6,0-6.51-2.91-6.51-6.5s2.92-6.5,6.51-6.5C80.01,24.27,82.92,27.18,82.92,30.77z"/>
	
		<ellipse style="clip-path:url(#SVGID_00000026142783540113991470000000654981343590941085_);fill:none;stroke:#F0C81F;stroke-width:1.085;stroke-linecap:round;stroke-linejoin:round;" cx="34.04" cy="30.77" rx="3.46" ry="3.45"/>
	
		<ellipse style="clip-path:url(#SVGID_00000026142783540113991470000000654981343590941085_);fill:none;stroke:#F0C81F;stroke-width:1.085;stroke-linecap:round;stroke-linejoin:round;" cx="76.41" cy="30.77" rx="3.46" ry="3.45"/>
</g>
<polyline class="st2" points="72.43,35.92 66.28,35.52 47.69,35.52 38.02,35.92 "/>
<g>
	<defs>
		<rect id="SVGID_00000050642193890113614640000017726468975469049765_" x="-0.46" y="0.05" width="106.46" height="106.16"/>
	</defs>
	<clipPath id="SVGID_00000058560989968641741270000013042536436626242693_">
		<use xlink:href="#SVGID_00000050642193890113614640000017726468975469049765_"  style="overflow:visible;"/>
	</clipPath>
	
		<path style="clip-path:url(#SVGID_00000058560989968641741270000013042536436626242693_);fill:none;stroke:#F0C81F;stroke-width:1.085;stroke-linecap:round;stroke-linejoin:round;" d="
		M29.54,35.46l-6.84-0.31c-1.98-0.09-3.71-1.39-4.33-3.28l-0.99-3.03c-0.28-0.87,0.15-1.8,0.99-2.14c4.79-1.95,17.3-7.68,24.6-9.03
		c12.71-2.35,23.77-1.32,36.14,2.86"/>
	
		<path style="clip-path:url(#SVGID_00000058560989968641741270000013042536436626242693_);fill:none;stroke:#F0C81F;stroke-width:1.085;stroke-linecap:round;stroke-linejoin:round;" d="
		M63.06,21.9l-1.28,8.19c-0.19,1.21-1.24,2.11-2.47,2.11h-9.58c-1.93,0-3.73-0.95-4.81-2.53l-4.67-6.79"/>
	
		<path style="clip-path:url(#SVGID_00000058560989968641741270000013042536436626242693_);fill:none;stroke:#F0C81F;stroke-width:1.085;stroke-linecap:round;stroke-linejoin:round;" d="
		M80.92,35.46l6.21-1.84l1.12-9.35c-7.71-6.34-21.25-3.7-25.19-2.37c-2.24,0.75-5.75,0.97-9.26,0.97H40.24
		c-2.83,0-5.71-2.07-7.99-1.86"/>
	
		<path style="clip-path:url(#SVGID_00000058560989968641741270000013042536436626242693_);fill:none;stroke:#F0C81F;stroke-width:1.085;stroke-linecap:round;stroke-linejoin:round;" d="
		M17.75,29.98h4.39c0.9,0,1.53,0.89,1.22,1.74c-0.34,0.94-0.67,2.17-0.67,3.43"/>
</g>
<line class="st2" x1="55.96" y1="26.2" x2="58.63" y2="26.2"/>
<line class="st2" x1="64.3" y1="32.2" x2="67.15" y2="32.2"/>
<line class="st2" x1="64.67" y1="28.75" x2="67.51" y2="28.75"/>
<line class="st2" x1="65.18" y1="25.3" x2="68.02" y2="25.3"/>
<g>
	<defs>
		<rect id="SVGID_00000031913399499468790880000011745985801750005415_" x="-0.46" y="0.05" width="106.46" height="106.16"/>
	</defs>
	<clipPath id="SVGID_00000015355312522943516880000016677250033520950929_">
		<use xlink:href="#SVGID_00000031913399499468790880000011745985801750005415_"  style="overflow:visible;"/>
	</clipPath>
	<path style="clip-path:url(#SVGID_00000015355312522943516880000016677250033520950929_);fill:#F0C81F;" d="M70.53,82.41
		c0,1.59,1.3,2.89,2.9,2.89c1.6,0,2.9-1.3,2.9-2.89c0-1.59-1.3-2.89-2.9-2.89C71.84,79.52,70.53,80.82,70.53,82.41 M72.79,82.41
		c0-0.35,0.29-0.64,0.64-0.64c0.35,0,0.64,0.29,0.64,0.64c0,0.35-0.29,0.64-0.64,0.64C73.08,83.05,72.79,82.77,72.79,82.41"/>
	
		<path style="clip-path:url(#SVGID_00000015355312522943516880000016677250033520950929_);fill:none;stroke:#21384D;stroke-width:0.499;stroke-miterlimit:10;" d="
		M70.53,82.41c0,1.59,1.3,2.89,2.9,2.89c1.6,0,2.9-1.3,2.9-2.89c0-1.59-1.3-2.89-2.9-2.89C71.84,79.52,70.53,80.82,70.53,82.41z
		 M72.79,82.41c0-0.35,0.29-0.64,0.64-0.64c0.35,0,0.64,0.29,0.64,0.64c0,0.35-0.29,0.64-0.64,0.64
		C73.08,83.05,72.79,82.77,72.79,82.41z"/>
	<path style="clip-path:url(#SVGID_00000015355312522943516880000016677250033520950929_);fill:#F0C81F;" d="M28.91,82.41
		c0,1.59,1.3,2.88,2.89,2.88c1.59,0,2.89-1.29,2.89-2.88c0-1.59-1.3-2.88-2.89-2.88C30.21,79.54,28.91,80.83,28.91,82.41
		 M31.17,82.41c0-0.35,0.28-0.63,0.63-0.63c0.35,0,0.63,0.28,0.63,0.63s-0.28,0.63-0.63,0.63C31.45,83.04,31.17,82.76,31.17,82.41"
		/>
	
		<path style="clip-path:url(#SVGID_00000015355312522943516880000016677250033520950929_);fill:none;stroke:#21384D;stroke-width:0.499;stroke-miterlimit:10;" d="
		M28.91,82.41c0,1.59,1.3,2.88,2.89,2.88c1.59,0,2.89-1.29,2.89-2.88c0-1.59-1.3-2.88-2.89-2.88
		C30.21,79.54,28.91,80.83,28.91,82.41z M31.17,82.41c0-0.35,0.28-0.63,0.63-0.63c0.35,0,0.63,0.28,0.63,0.63s-0.28,0.63-0.63,0.63
		C31.45,83.04,31.17,82.76,31.17,82.41z"/>
	<path style="clip-path:url(#SVGID_00000015355312522943516880000016677250033520950929_);fill:#F0C81F;" d="M19.24,67.22l2.39-3.25
		c0.33-0.6,2.51-4.61,4.58-7.47c0.01-0.02,0.02-0.03,0.04-0.05l2.37-2.92c1.26-1.64,3.25-2.61,5.32-2.61h50.7
		c2.13,0,3.86,1.73,3.86,3.85v25.88c0,1.77-1.44,3.2-3.21,3.2h-1.7c-0.62,0-1.13-0.5-1.13-1.12c0-0.62,0.5-1.12,1.13-1.12h1.7
		c0.53,0,0.95-0.43,0.95-0.95V54.78c0-0.88-0.72-1.6-1.6-1.6h-50.7c-1.37,0-2.69,0.65-3.54,1.76l-2.36,2.91
		c-2.1,2.91-4.42,7.22-4.44,7.26c-0.03,0.05-0.05,0.09-0.09,0.14l-2.46,3.33c-0.01,0.01-0.02,0.03-0.03,0.04
		c-1.11,1.37-1.72,3.09-1.72,4.85v8.12c0,0.12,0.1,0.23,0.23,0.23h1.9c0.62,0,1.13,0.5,1.13,1.12c0,0.62-0.51,1.12-1.13,1.12h-1.9
		c-1.37,0-2.48-1.11-2.48-2.48v-8.12C17.04,71.2,17.82,68.99,19.24,67.22"/>
	
		<path style="clip-path:url(#SVGID_00000015355312522943516880000016677250033520950929_);fill:none;stroke:#21384D;stroke-width:0.499;stroke-miterlimit:10;" d="
		M19.24,67.22l2.39-3.25c0.33-0.6,2.51-4.61,4.58-7.47c0.01-0.02,0.02-0.03,0.04-0.05l2.37-2.92c1.26-1.64,3.25-2.61,5.32-2.61h50.7
		c2.13,0,3.86,1.73,3.86,3.85v25.88c0,1.77-1.44,3.2-3.21,3.2h-1.7c-0.62,0-1.13-0.5-1.13-1.12c0-0.62,0.5-1.12,1.13-1.12h1.7
		c0.53,0,0.95-0.43,0.95-0.95V54.78c0-0.88-0.72-1.6-1.6-1.6h-50.7c-1.37,0-2.69,0.65-3.54,1.76l-2.36,2.91
		c-2.1,2.91-4.42,7.22-4.44,7.26c-0.03,0.05-0.05,0.09-0.09,0.14l-2.46,3.33c-0.01,0.01-0.02,0.03-0.03,0.04
		c-1.11,1.37-1.72,3.09-1.72,4.85v8.12c0,0.12,0.1,0.23,0.23,0.23h1.9c0.62,0,1.13,0.5,1.13,1.12c0,0.62-0.51,1.12-1.13,1.12h-1.9
		c-1.37,0-2.48-1.11-2.48-2.48v-8.12C17.04,71.2,17.82,68.99,19.24,67.22z"/>
	<path style="clip-path:url(#SVGID_00000015355312522943516880000016677250033520950929_);fill:#F0C81F;" d="M42.07,81.81h21.09
		c0.62,0,1.13,0.5,1.13,1.12s-0.5,1.12-1.13,1.12H42.07c-0.62,0-1.13-0.5-1.13-1.12S41.45,81.81,42.07,81.81"/>
	
		<path style="clip-path:url(#SVGID_00000015355312522943516880000016677250033520950929_);fill:none;stroke:#21384D;stroke-width:0.499;stroke-miterlimit:10;" d="
		M42.07,81.81h21.09c0.62,0,1.13,0.5,1.13,1.12s-0.5,1.12-1.13,1.12H42.07c-0.62,0-1.13-0.5-1.13-1.12S41.45,81.81,42.07,81.81z"/>
	<path style="clip-path:url(#SVGID_00000015355312522943516880000016677250033520950929_);fill:#F0C81F;" d="M66.01,82.41
		c0,4.08,3.33,7.4,7.42,7.4c4.09,0,7.42-3.32,7.42-7.4c0-4.08-3.33-7.4-7.42-7.4C69.34,75.01,66.01,78.33,66.01,82.41 M68.27,82.41
		c0-2.84,2.32-5.15,5.16-5.15c2.85,0,5.16,2.31,5.16,5.15c0,2.84-2.32,5.15-5.16,5.15C70.59,87.56,68.27,85.25,68.27,82.41"/>
	
		<path style="clip-path:url(#SVGID_00000015355312522943516880000016677250033520950929_);fill:none;stroke:#21384D;stroke-width:0.499;stroke-miterlimit:10;" d="
		M66.01,82.41c0,4.08,3.33,7.4,7.42,7.4c4.09,0,7.42-3.32,7.42-7.4c0-4.08-3.33-7.4-7.42-7.4C69.34,75.01,66.01,78.33,66.01,82.41z
		 M68.27,82.41c0-2.84,2.32-5.15,5.16-5.15c2.85,0,5.16,2.31,5.16,5.15c0,2.84-2.32,5.15-5.16,5.15
		C70.59,87.56,68.27,85.25,68.27,82.41z"/>
	<path style="clip-path:url(#SVGID_00000015355312522943516880000016677250033520950929_);fill:#F0C81F;" d="M24.38,82.41
		c0,4.08,3.33,7.4,7.42,7.4s7.42-3.32,7.42-7.4c0-4.08-3.33-7.4-7.42-7.4S24.38,78.33,24.38,82.41 M26.64,82.41
		c0-2.84,2.32-5.15,5.16-5.15c2.85,0,5.16,2.31,5.16,5.15c0,2.84-2.32,5.15-5.16,5.15C28.95,87.56,26.64,85.25,26.64,82.41"/>
	
		<path style="clip-path:url(#SVGID_00000015355312522943516880000016677250033520950929_);fill:none;stroke:#21384D;stroke-width:0.499;stroke-miterlimit:10;" d="
		M24.38,82.41c0,4.08,3.33,7.4,7.42,7.4s7.42-3.32,7.42-7.4c0-4.08-3.33-7.4-7.42-7.4S24.38,78.33,24.38,82.41z M26.64,82.41
		c0-2.84,2.32-5.15,5.16-5.15c2.85,0,5.16,2.31,5.16,5.15c0,2.84-2.32,5.15-5.16,5.15C28.95,87.56,26.64,85.25,26.64,82.41z"/>
	<path style="clip-path:url(#SVGID_00000015355312522943516880000016677250033520950929_);fill:#F0C81F;" d="M33.7,57.68
		c-0.62,0-1.13-0.5-1.13-1.12s0.51-1.12,1.13-1.12h10.09c0.62,0,1.13,0.5,1.13,1.12v9.94c0,0.62-0.51,1.13-1.13,1.13H34.3l-2.81,1.9
		c-0.19,0.13-0.41,0.19-0.63,0.19h-5.23c-0.62,0-1.13-0.5-1.13-1.12c0-0.62,0.51-1.12,1.13-1.12h4.88l2.81-1.9
		c0.19-0.13,0.41-0.19,0.63-0.19h2c-0.01-0.06-0.02-0.11-0.02-0.17v-4.52c0-0.62,0.51-1.12,1.13-1.12s1.13,0.5,1.13,1.12v4.52
		c0,0.06-0.01,0.11-0.02,0.17h4.48v-7.69H33.7z"/>
	
		<path style="clip-path:url(#SVGID_00000015355312522943516880000016677250033520950929_);fill:none;stroke:#21384D;stroke-width:0.499;stroke-miterlimit:10;" d="
		M33.7,57.68c-0.62,0-1.13-0.5-1.13-1.12s0.51-1.12,1.13-1.12h10.09c0.62,0,1.13,0.5,1.13,1.12v9.94c0,0.62-0.51,1.13-1.13,1.13
		H34.3l-2.81,1.9c-0.19,0.13-0.41,0.19-0.63,0.19h-5.23c-0.62,0-1.13-0.5-1.13-1.12c0-0.62,0.51-1.12,1.13-1.12h4.88l2.81-1.9
		c0.19-0.13,0.41-0.19,0.63-0.19h2c-0.01-0.06-0.02-0.11-0.02-0.17v-4.52c0-0.62,0.51-1.12,1.13-1.12s1.13,0.5,1.13,1.12v4.52
		c0,0.06-0.01,0.11-0.02,0.17h4.48v-7.69H33.7z"/>
	<path style="clip-path:url(#SVGID_00000015355312522943516880000016677250033520950929_);fill:#F0C81F;" d="M81.6,62.32H49.77
		c-0.62,0-1.13-0.5-1.13-1.12s0.5-1.12,1.13-1.12H81.6c0.62,0,1.13,0.5,1.13,1.12S82.22,62.32,81.6,62.32"/>
	
		<path style="clip-path:url(#SVGID_00000015355312522943516880000016677250033520950929_);fill:none;stroke:#21384D;stroke-width:0.499;stroke-miterlimit:10;" d="
		M81.6,62.32H49.77c-0.62,0-1.13-0.5-1.13-1.12s0.5-1.12,1.13-1.12H81.6c0.62,0,1.13,0.5,1.13,1.12S82.22,62.32,81.6,62.32z"/>
	<path style="clip-path:url(#SVGID_00000015355312522943516880000016677250033520950929_);fill:#F0C81F;" d="M48.64,69.13
		c0-0.62,0.51-1.12,1.13-1.12H81.6c0.62,0,1.13,0.5,1.13,1.12c0,0.62-0.5,1.12-1.13,1.12H49.77C49.15,70.26,48.64,69.75,48.64,69.13
		"/>
	
		<path style="clip-path:url(#SVGID_00000015355312522943516880000016677250033520950929_);fill:none;stroke:#21384D;stroke-width:0.499;stroke-miterlimit:10;" d="
		M48.64,69.13c0-0.62,0.51-1.12,1.13-1.12H81.6c0.62,0,1.13,0.5,1.13,1.12c0,0.62-0.5,1.12-1.13,1.12H49.77
		C49.15,70.26,48.64,69.75,48.64,69.13z"/>
	<path style="clip-path:url(#SVGID_00000015355312522943516880000016677250033520950929_);fill:#F0C81F;" d="M38.37,71.78
		c0-0.62,0.51-1.12,1.13-1.12h3.08c0.62,0,1.13,0.5,1.13,1.12c0,0.62-0.51,1.12-1.13,1.12H39.5C38.88,72.91,38.37,72.4,38.37,71.78"
		/>
	
		<path style="clip-path:url(#SVGID_00000015355312522943516880000016677250033520950929_);fill:none;stroke:#21384D;stroke-width:0.499;stroke-miterlimit:10;" d="
		M38.37,71.78c0-0.62,0.51-1.12,1.13-1.12h3.08c0.62,0,1.13,0.5,1.13,1.12c0,0.62-0.51,1.12-1.13,1.12H39.5
		C38.88,72.91,38.37,72.4,38.37,71.78z"/>
</g>
</svg>
